<?xml version="1.0" encoding="UTF-8" standalone="no"?>
<svg width="70px" height="69px" viewBox="0 0 70 69" version="1.1" xmlns="http://www.w3.org/2000/svg" xmlns:xlink="http://www.w3.org/1999/xlink" xmlns:sketch="http://www.bohemiancoding.com/sketch/ns">
    <!-- Generator: Sketch 3.4.4 (17249) - http://www.bohemiancoding.com/sketch -->
    <title>CPB</title>
    <desc>Created with Sketch.</desc>
    <defs>
        <path id="path-1" d="M0,0.0997033493 L68.927586,0.0997033493 L68.927586,69 L0,69"></path>
        <path id="path-3" d="M0,0.0997033493 L68.927586,0.0997033493 L68.927586,69 L0,69 L0,0.0997033493 Z"></path>
    </defs>
    <g id="Page-1" stroke="none" stroke-width="1" fill="none" fill-rule="evenodd" sketch:type="MSPage">
        <g id="Final-Design" sketch:type="MSArtboardGroup" transform="translate(-478.000000, -1246.000000)">
            <g id="Locations-Slider" sketch:type="MSLayerGroup" transform="translate(-15.000000, 638.000000)">
                <g id="Funders" transform="translate(15.000000, 571.000000)">
                    <g id="Group" transform="translate(215.000000, 37.000000)">
                        <g id="CPB" transform="translate(263.129366, 0.000000)">
                            <path d="M26.7378844,34.2498172 C26.7378844,29.9843627 30.1968472,26.5267694 34.4639911,26.5267694 C38.7304746,26.5267694 42.1897676,29.9843627 42.1897676,34.2498172 C42.1897676,38.5149416 38.7304746,41.9725349 34.4639911,41.9725349 C30.1968472,41.9725349 26.7378844,38.5149416 26.7378844,34.2498172" id="Fill-1" fill="#FFFFFF" sketch:type="MSShapeGroup"></path>
                            <path d="M51.6534144,34.2498172 C51.6534144,29.9843627 55.1123771,26.5267694 59.3798513,26.5267694 C63.646665,26.5267694 67.1052975,29.9843627 67.1052975,34.2498172 C67.1052975,38.5149416 63.646665,41.9725349 59.3798513,41.9725349 C55.1123771,41.9725349 51.6534144,38.5149416 51.6534144,34.2498172" id="Fill-3" fill="#FFFFFF" sketch:type="MSShapeGroup"></path>
                            <g id="Group-7">
                                <mask id="mask-2" sketch:name="Clip 6" fill="white">
                                    <use xlink:href="#path-1"></use>
                                </mask>
                                <g id="Clip-6"></g>
                                <path d="M2.10777756,34.2498172 C2.10777756,29.9843627 5.56707058,26.5267694 9.83388427,26.5267694 C12.6243718,26.5267694 15.0693925,28.0058124 16.4271501,30.222066 L19.5456001,30.222066 C17.964577,26.4174919 14.2120004,23.7423388 9.83388427,23.7423388 C5.33885104,23.7423388 1.50271504,26.562755 -3.302743e-05,30.5297598 L-3.302743e-05,0.099769378 L48.8032793,0.099769378 L48.8032793,44.7572957 L51.6624639,44.7572957 L51.6624639,41.3842191 C53.5823484,43.458511 56.32957,44.7572957 59.3796532,44.7572957 C63.6131092,44.7572957 67.2623099,42.2554679 68.9275529,38.6503005 L68.9275529,69.000066 L26.5860573,69.000066 L26.5860573,41.2069321 C28.5122171,43.3842287 31.3278055,44.7572957 34.4640902,44.7572957 C40.2693216,44.7572957 44.9754001,40.0530804 44.9754001,34.2498172 C44.9754001,28.4465541 40.2693216,23.7423388 34.4640902,23.7423388 C31.3278055,23.7423388 28.5122171,25.1154057 26.5860573,27.2927024 L26.5860573,23.6924871 L23.9524501,23.6924871 L23.9524501,34.2498172 L23.9524501,69.000066 L-3.302743e-05,69.000066 L-3.302743e-05,37.9698746 C1.50271504,41.9368794 5.33885104,44.7572957 9.83388427,44.7572957 C13.9778359,44.7572957 17.5619726,42.3601234 19.2737843,38.8771091 L16.0199219,38.8771091 C14.6106415,40.7566163 12.3641157,41.9725349 9.83388427,41.9725349 C5.56707058,41.9725349 2.10777756,38.5149416 2.10777756,34.2498172" id="Fill-5" fill="#FFFFFF" sketch:type="MSShapeGroup" mask="url(#mask-2)"></path>
                            </g>
                            <g id="Group-10">
                                <mask id="mask-4" sketch:name="Clip 9" fill="white">
                                    <use xlink:href="#path-3"></use>
                                </mask>
                                <g id="Clip-9"></g>
                                <path d="M51.6624639,0.0996373206 L68.9275529,0.0996373206 L68.9275529,29.8492019 C67.2623099,26.2440344 63.6131092,23.7425368 59.3796532,23.7425368 C56.32957,23.7425368 53.5823484,25.0409914 51.6624639,27.1152833 L51.6624639,0.0996373206 Z" id="Fill-8" fill="#FFFFFF" sketch:type="MSShapeGroup" mask="url(#mask-4)"></path>
                            </g>
                        </g>
                    </g>
                </g>
            </g>
        </g>
    </g>
</svg>